HIERARCHY
ROOT Hips
{
	OFFSET 0.000000 0.000000 0.000000 
	CHANNELS 6 Xposition Yposition Zposition Zrotation Yrotation Xrotation
	JOINT LeftUpLeg
	{
		OFFSET 1.363060 -1.794630 0.839290 
		CHANNELS 3 Zrotation Yrotation Xrotation
		JOINT LeftLeg
		{
			OFFSET 2.448110 -6.726130 0.000000 
			CHANNELS 3 Zrotation Yrotation Xrotation
			JOINT LeftFoot
			{
				OFFSET 2.562200 -7.039590 0.000000 
				CHANNELS 3 Zrotation Yrotation Xrotation
				JOINT LeftToeBase
				{
					OFFSET 0.157640 -0.433110 2.322550 
					CHANNELS 3 Zrotation Yrotation Xrotation
					End Site
					{
						OFFSET 0.000000 0.000000 0.000000 
					}
				}
			}
		}
	}
	JOINT RightUpLeg
	{
		OFFSET -1.305520 -1.794630 0.839290 
		CHANNELS 3 Zrotation Yrotation Xrotation
		JOINT RightLeg
		{
			OFFSET -2.542530 -6.985550 0.000000 
			CHANNELS 3 Zrotation Yrotation Xrotation
			JOINT RightFoot
			{
				OFFSET -2.568260 -7.056230 0.000000 
				CHANNELS 3 Zrotation Yrotation Xrotation
				JOINT RightToeBase
				{
					OFFSET -0.164730 -0.452590 2.363150 
					CHANNELS 3 Zrotation Yrotation Xrotation
					End Site
					{
						OFFSET 0.000000 0.000000 0.000000 
					}
				}
			}
		}
	}
	JOINT Spine
	{
		OFFSET 0.028270 2.035590 -0.193380 
		CHANNELS 3 Zrotation Yrotation Xrotation
		JOINT Spine1
		{
			OFFSET 0.056720 2.048850 -0.042750 
			CHANNELS 3 Zrotation Yrotation Xrotation
			JOINT Neck1
			{
				OFFSET -0.054170 1.746240 0.172020 
				CHANNELS 3 Zrotation Yrotation Xrotation
				JOINT Head
				{
					OFFSET 0.104070 1.761360 -0.123970 
					CHANNELS 3 Zrotation Yrotation Xrotation
					End Site
					{
						OFFSET 0.000000 0.000000 0.000000 
					}
				}
			}
			JOINT LeftArm
			{
				OFFSET 3.362410 1.200890 -0.311210 
				CHANNELS 3 Zrotation Yrotation Xrotation
				JOINT LeftForeArm
				{
					OFFSET 4.983000 -0.000000 -0.000000 
					CHANNELS 3 Zrotation Yrotation Xrotation
					JOINT LeftHand
					{
						OFFSET 3.483560 -0.000000 -0.000000 
						CHANNELS 3 Zrotation Yrotation Xrotation
						JOINT LeftHandIndex1
						{
							OFFSET 0.715260 -0.000000 -0.000000 
							CHANNELS 3 Zrotation Yrotation Xrotation
							End Site
							{
								OFFSET 0.000000 0.000000 0.000000 
							}
						}
					}
				}
			}
			JOINT RightArm
			{
				OFFSET -3.136600 1.374050 -0.404650 
				CHANNELS 3 Zrotation Yrotation Xrotation
				JOINT RightForeArm
				{
					OFFSET -5.241900 -0.000000 -0.000000 
					CHANNELS 3 Zrotation Yrotation Xrotation
					JOINT RightHand
					{
						OFFSET -3.444170 -0.000000 -0.000000 
						CHANNELS 3 Zrotation Yrotation Xrotation
						JOINT RightHandIndex1
						{
							OFFSET -0.622530 -0.000000 -0.000000 
							CHANNELS 3 Zrotation Yrotation Xrotation
							End Site
							{
								OFFSET 0.000000 0.000000 0.000000 
							}
						}
					}
				}
			}
		}
	}
}
MOTION
Frames: 9
Frame Time: 0.041667
-0.815186 17.051862 4.457008 -5.819465 -2.848814 8.185297 -21.094895 -17.581347 -6.180985 -0.111932 8.851004 23.988643 0.319556 5.995289 -17.515349 0.000100 0.059600 0.163900 36.456518 12.469937 -1.683512 1.577118 -5.840263 16.709070 0.609026 -10.929725 -13.971869 -0.030300 1.123200 -3.087800 0.836704 -0.502618 -5.195491 -4.709254 -0.493694 -2.446293 5.198533 -11.338036 13.508578 -1.538000 -4.438300 11.537600 -99.402557 8.613508 8.421484 25.410071 -33.753471 -5.128490 0.172569 4.333633 17.703000 -7.125000 0.000000 0.000000 97.686958 -3.841927 4.025847 -12.782876 24.417578 -1.993267 -1.505322 -2.623336 26.541209 7.125000 0.000000 0.000000 
-0.801498 17.050353 4.482227 -5.671948 -2.616101 8.087810 -21.341098 -17.440060 -6.069543 -0.116679 8.842204 23.978788 0.356711 5.664527 -17.468742 0.000000 0.021100 0.058000 36.166915 11.622283 -1.643164 1.549643 -5.813201 16.754567 0.536815 -10.408433 -13.992520 -0.036000 1.225300 -3.369000 0.836292 -0.646884 -5.165965 -4.715598 -0.557111 -2.233739 5.187011 -11.532405 13.466516 -1.508300 -4.548700 11.476300 -99.520182 8.695755 8.238752 25.328760 -33.700353 -5.102736 0.178939 4.330343 17.831119 -7.125000 0.000000 0.000000 97.597122 -3.889040 3.979634 -12.785382 24.426470 -1.992460 -1.502530 -2.602375 26.448131 7.125000 0.000000 0.000000 
-0.801930 17.050784 4.458194 -5.784190 -2.870123 8.209216 -21.172153 -17.519990 -6.220732 -0.115378 8.854912 23.984837 0.323391 5.949030 -17.495190 0.000200 0.094900 0.260800 36.359503 12.565034 -1.690926 1.578744 -5.827662 16.673297 0.617434 -10.988092 -13.979880 -0.028800 1.095200 -3.010800 0.839192 -0.557755 -5.189753 -4.610896 -0.518105 -2.472025 5.223798 -11.730040 13.371283 -1.474800 -4.654300 11.413600 -99.586536 8.775971 8.089403 25.283869 -33.642590 -5.088239 0.177176 4.343945 17.896406 -7.125000 0.000000 0.000000 97.581631 -3.875452 3.779394 -12.776539 24.344512 -1.977897 -1.504293 -2.531997 26.484152 7.125000 0.000000 0.000000 
-0.794278 17.051538 4.462397 -5.755439 -2.869279 8.226565 -21.232545 -17.481903 -6.234990 -0.116889 8.858613 23.987756 0.330804 5.888841 -17.493932 0.000300 0.113900 0.312900 36.286687 12.502983 -1.693899 1.576781 -5.819366 16.662232 0.613608 -10.949894 -13.966972 -0.031200 1.139800 -3.133500 0.838102 -0.605331 -5.182648 -4.549612 -0.539836 -2.445075 5.254807 -12.022364 13.306733 -1.404900 -4.815400 11.368300 -99.702749 8.867005 7.917445 25.236489 -33.602669 -5.070443 0.165227 4.348314 17.935174 -7.125000 0.000000 0.000000 97.534048 -3.867514 3.812965 -12.826500 24.399499 -1.989465 -1.504454 -2.542578 26.288970 7.125000 0.000000 0.000000 
-0.787811 17.051969 4.461535 -5.750755 -2.910601 8.257371 -21.254212 -17.469409 -6.278414 -0.115356 8.870437 24.008679 0.331309 5.893746 -17.506910 0.000400 0.136800 0.375900 36.256320 12.601796 -1.701093 1.580971 -5.810804 16.629360 0.623015 -11.006734 -13.949396 -0.031200 1.141100 -3.137100 0.838309 -0.626779 -5.181171 -4.487622 -0.549780 -2.467198 5.283645 -12.258210 13.240477 -1.349100 -4.946000 11.317900 -99.808813 8.959091 7.765240 25.190901 -33.563575 -5.055203 0.158359 4.356088 17.967354 -7.125000 0.000000 0.000000 97.490603 -3.865860 3.806816 -12.865918 24.426932 -1.995369 -1.502189 -2.537832 26.134779 7.125000 0.000000 0.000000 
-0.781453 17.052616 4.460349 -5.748575 -2.960986 8.291652 -21.274636 -17.457659 -6.309365 -0.117752 8.872006 24.002359 0.328681 5.916781 -17.509542 0.000600 0.160700 0.441400 36.228588 12.721378 -1.722156 1.583367 -5.811390 16.616654 0.632095 -11.065754 -13.941678 -0.031200 1.139700 -3.133300 0.838536 -0.645248 -5.180637 -4.426143 -0.558710 -2.494420 5.316668 -12.476483 13.179730 -1.290900 -5.067600 11.273000 -99.917807 9.056794 7.628916 25.151829 -33.531345 -5.042141 0.150040 4.364500 17.976263 -7.125000 0.000000 0.000000 97.451892 -3.861832 3.835979 -12.919989 24.473301 -2.004817 -1.498274 -2.542221 25.945384 7.125000 0.000000 0.000000 
-0.774124 17.053155 4.460888 -5.740197 -2.994811 8.317509 -21.307429 -17.440757 -6.334228 -0.119035 8.875778 24.003695 0.328793 5.918424 -17.513512 0.000800 0.178800 0.491200 36.186507 12.772308 -1.735579 1.584614 -5.807755 16.602000 0.635480 -11.082878 -13.932293 -0.031600 1.146700 -3.152500 0.838725 -0.670367 -5.178549 -4.375383 -0.571037 -2.504833 5.346633 -12.675124 13.127491 -1.237500 -5.177700 11.233900 -100.030684 9.157641 7.508994 25.113645 -33.502435 -5.029117 0.141798 4.371913 17.982420 -7.125000 0.000000 0.000000 97.416284 -3.855366 3.900846 -12.988728 24.541745 -2.017749 -1.491079 -2.556246 25.723641 7.125000 0.000000 0.000000 
-0.766688 17.053694 4.461319 -5.732460 -3.030233 8.341954 -21.340695 -17.423407 -6.358693 -0.120397 8.879725 24.005392 0.328896 5.920421 -17.517095 0.000900 0.195000 0.535700 36.144365 12.822892 -1.748064 1.585708 -5.803988 16.587509 0.638488 -11.098380 -13.923740 -0.031900 1.152600 -3.168900 0.839073 -0.693689 -5.177128 -4.328814 -0.582847 -2.516866 5.376139 -12.853651 13.081985 -1.188700 -5.275900 11.201500 -100.146127 9.260865 7.404592 25.076580 -33.475398 -5.016257 0.133462 4.379145 17.993811 -7.125000 0.000000 0.000000 97.385789 -3.845202 3.989695 -13.070440 24.624315 -2.032529 -1.480865 -2.572573 25.486362 7.125000 0.000000 0.000000 
-0.758821 17.054125 4.461643 -5.726283 -3.067935 8.364901 -21.373089 -17.403521 -6.381724 -0.121516 8.883128 24.006813 0.329089 5.920769 -17.520327 0.001100 0.210100 0.577100 36.104113 12.877178 -1.758918 1.586750 -5.800554 16.574014 0.641639 -11.115256 -13.917289 -0.032200 1.159200 -3.187000 0.839392 -0.713451 -5.176273 -4.289214 -0.593491 -2.529217 5.403706 -13.003645 13.044233 -1.147200 -5.357400 11.175800 -100.262882 9.364891 7.311891 25.039366 -33.448868 -5.002887 0.125198 4.385053 18.025498 -7.125000 0.000000 0.000000 97.362790 -3.832091 4.100152 -13.166449 24.723063 -2.049429 -1.467671 -2.590750 25.236274 7.125000 0.000000 0.000000 
